<mxfile host="app.diagrams.net" modified="2020-06-10T22:17:50.152Z" agent="5.0 (X11)" etag="taMS1EgAWDGPkP2_wzjL" version="13.1.14" type="github">
  <diagram id="ZckmdaoXzeLD56jOtGl1" name="Page-1">
    <mxGraphModel dx="813" dy="438" grid="1" gridSize="10" guides="1" tooltips="1" connect="1" arrows="1" fold="1" page="1" pageScale="1" pageWidth="850" pageHeight="1100" math="0" shadow="0">
      <root>
        <mxCell id="0" />
        <mxCell id="1" parent="0" />
        <mxCell id="0NU24TA6zj3jAs6wYLDZ-6" value="" style="edgeStyle=orthogonalEdgeStyle;rounded=0;orthogonalLoop=1;jettySize=auto;html=1;" parent="1" source="0NU24TA6zj3jAs6wYLDZ-1" target="0NU24TA6zj3jAs6wYLDZ-9" edge="1">
          <mxGeometry relative="1" as="geometry">
            <mxPoint x="330" y="200" as="targetPoint" />
          </mxGeometry>
        </mxCell>
        <mxCell id="0NU24TA6zj3jAs6wYLDZ-1" value="" style="points=[[0.015,0.015,0],[0.985,0.015,0],[0.985,0.985,0],[0.015,0.985,0],[0.25,0,0],[0.5,0,0],[0.75,0,0],[1,0.25,0],[1,0.5,0],[1,0.75,0],[0.75,1,0],[0.5,1,0],[0.25,1,0],[0,0.75,0],[0,0.5,0],[0,0.25,0]];verticalLabelPosition=bottom;html=1;verticalAlign=top;aspect=fixed;align=center;pointerEvents=1;shape=mxgraph.cisco19.rect;prIcon=ips_ids;fillColor=#FAFAFA;strokeColor=#005073;" parent="1" vertex="1">
          <mxGeometry x="384" y="180" width="64" height="50" as="geometry" />
        </mxCell>
        <mxCell id="0NU24TA6zj3jAs6wYLDZ-2" value="" style="points=[];aspect=fixed;html=1;align=center;shadow=0;dashed=0;image;image=img/lib/allied_telesis/computer_and_terminals/Personal_Computer_with_Server.svg;" parent="1" vertex="1">
          <mxGeometry x="120" y="173.8" width="62.400000000000006" height="62.400000000000006" as="geometry" />
        </mxCell>
        <mxCell id="0NU24TA6zj3jAs6wYLDZ-3" value="" style="points=[];aspect=fixed;html=1;align=center;shadow=0;dashed=0;image;image=img/lib/allied_telesis/computer_and_terminals/Personal_Computer.svg;" parent="1" vertex="1">
          <mxGeometry x="230" y="280" width="45.6" height="61.800000000000004" as="geometry" />
        </mxCell>
        <mxCell id="0NU24TA6zj3jAs6wYLDZ-4" value="" style="points=[];aspect=fixed;html=1;align=center;shadow=0;dashed=0;image;image=img/lib/allied_telesis/computer_and_terminals/Personal_Computer_Wireless.svg;" parent="1" vertex="1">
          <mxGeometry x="221.3" y="60" width="63" height="64.2" as="geometry" />
        </mxCell>
        <mxCell id="0NU24TA6zj3jAs6wYLDZ-10" style="edgeStyle=orthogonalEdgeStyle;rounded=0;orthogonalLoop=1;jettySize=auto;html=1;exitX=0.5;exitY=1;exitDx=0;exitDy=0;" parent="1" source="0NU24TA6zj3jAs6wYLDZ-9" target="0NU24TA6zj3jAs6wYLDZ-3" edge="1">
          <mxGeometry relative="1" as="geometry" />
        </mxCell>
        <mxCell id="0NU24TA6zj3jAs6wYLDZ-11" style="edgeStyle=orthogonalEdgeStyle;rounded=0;orthogonalLoop=1;jettySize=auto;html=1;exitX=0;exitY=0.5;exitDx=0;exitDy=0;" parent="1" source="0NU24TA6zj3jAs6wYLDZ-9" target="0NU24TA6zj3jAs6wYLDZ-2" edge="1">
          <mxGeometry relative="1" as="geometry" />
        </mxCell>
        <mxCell id="0NU24TA6zj3jAs6wYLDZ-12" style="edgeStyle=orthogonalEdgeStyle;rounded=0;orthogonalLoop=1;jettySize=auto;html=1;exitX=0.5;exitY=0;exitDx=0;exitDy=0;" parent="1" source="0NU24TA6zj3jAs6wYLDZ-9" target="0NU24TA6zj3jAs6wYLDZ-4" edge="1">
          <mxGeometry relative="1" as="geometry" />
        </mxCell>
        <mxCell id="0NU24TA6zj3jAs6wYLDZ-9" value="" style="image;html=1;labelBackgroundColor=#ffffff;image=img/lib/clip_art/networking/Router_Icon_128x128.png" parent="1" vertex="1">
          <mxGeometry x="260" y="170.2" width="45.7" height="70" as="geometry" />
        </mxCell>
        <mxCell id="0NU24TA6zj3jAs6wYLDZ-27" style="edgeStyle=none;rounded=0;orthogonalLoop=1;jettySize=auto;html=1;exitX=0;exitY=0.7;exitDx=0;exitDy=0;exitPerimeter=0;entryX=1;entryY=0.5;entryDx=0;entryDy=0;" parent="1" source="0NU24TA6zj3jAs6wYLDZ-15" target="0NU24TA6zj3jAs6wYLDZ-21" edge="1">
          <mxGeometry relative="1" as="geometry" />
        </mxCell>
        <mxCell id="0NU24TA6zj3jAs6wYLDZ-15" value="" style="outlineConnect=0;dashed=0;verticalLabelPosition=bottom;verticalAlign=top;align=center;html=1;shape=mxgraph.aws3.internet_2;fillColor=#D2D3D3;gradientColor=none;" parent="1" vertex="1">
          <mxGeometry x="580" y="167" width="79.5" height="54" as="geometry" />
        </mxCell>
        <mxCell id="0NU24TA6zj3jAs6wYLDZ-17" value="&lt;div&gt;Suricata IDPS&lt;/div&gt;&lt;div&gt;sensor&lt;br&gt;&lt;/div&gt;" style="text;html=1;align=center;verticalAlign=middle;resizable=0;points=[];autosize=1;" parent="1" vertex="1">
          <mxGeometry x="368" y="151" width="100" height="30" as="geometry" />
        </mxCell>
        <mxCell id="0NU24TA6zj3jAs6wYLDZ-25" style="edgeStyle=none;rounded=0;orthogonalLoop=1;jettySize=auto;html=1;exitX=0.5;exitY=0;exitDx=0;exitDy=0;" parent="1" source="0NU24TA6zj3jAs6wYLDZ-18" target="0NU24TA6zj3jAs6wYLDZ-21" edge="1">
          <mxGeometry relative="1" as="geometry" />
        </mxCell>
        <mxCell id="0NU24TA6zj3jAs6wYLDZ-18" value="" style="shape=image;html=1;verticalAlign=top;verticalLabelPosition=bottom;labelBackgroundColor=#ffffff;imageAspect=0;aspect=fixed;image=https://cdn2.iconfinder.com/data/icons/security-and-protect-glyph-color/512/security-protect-lock-shield-14-128.png" parent="1" vertex="1">
          <mxGeometry x="480" y="320" width="70" height="70" as="geometry" />
        </mxCell>
        <mxCell id="0NU24TA6zj3jAs6wYLDZ-24" style="edgeStyle=none;rounded=0;orthogonalLoop=1;jettySize=auto;html=1;exitX=0;exitY=0.5;exitDx=0;exitDy=0;entryX=1;entryY=0.5;entryDx=0;entryDy=0;entryPerimeter=0;" parent="1" source="0NU24TA6zj3jAs6wYLDZ-21" target="0NU24TA6zj3jAs6wYLDZ-1" edge="1">
          <mxGeometry relative="1" as="geometry" />
        </mxCell>
        <mxCell id="0NU24TA6zj3jAs6wYLDZ-21" value="" style="image;html=1;labelBackgroundColor=#ffffff;image=img/lib/clip_art/networking/Router_Icon_128x128.png" parent="1" vertex="1">
          <mxGeometry x="492.15" y="170.2" width="45.7" height="70" as="geometry" />
        </mxCell>
        <mxCell id="MYbSHBmcOl76W8GacL6I-1" value="&lt;font style=&quot;font-size: 9px&quot;&gt;123.123.1.4/24&lt;/font&gt;" style="text;html=1;align=center;verticalAlign=middle;resizable=0;points=[];autosize=1;" parent="1" vertex="1">
          <mxGeometry x="520" y="290" width="80" height="20" as="geometry" />
        </mxCell>
        <mxCell id="MYbSHBmcOl76W8GacL6I-2" value="&lt;font style=&quot;font-size: 9px&quot;&gt;192.168.0.4/24&lt;/font&gt;" style="text;html=1;align=center;verticalAlign=middle;resizable=0;points=[];autosize=1;" parent="1" vertex="1">
          <mxGeometry x="430" y="290" width="80" height="20" as="geometry" />
        </mxCell>
        <mxCell id="MYbSHBmcOl76W8GacL6I-3" value="&lt;font style=&quot;font-size: 8px&quot;&gt;fake internal IP&lt;/font&gt;" style="text;html=1;align=center;verticalAlign=middle;resizable=0;points=[];autosize=1;" parent="1" vertex="1">
          <mxGeometry x="430" y="279" width="80" height="20" as="geometry" />
        </mxCell>
        <mxCell id="MYbSHBmcOl76W8GacL6I-4" value="&lt;font style=&quot;font-size: 9px&quot;&gt;192.168.0.3/24&lt;/font&gt;" style="text;html=1;align=center;verticalAlign=middle;resizable=0;points=[];autosize=1;" parent="1" vertex="1">
          <mxGeometry x="111.19999999999999" y="153.8" width="80" height="20" as="geometry" />
        </mxCell>
        <mxCell id="MYbSHBmcOl76W8GacL6I-5" value="&lt;font style=&quot;font-size: 9px&quot;&gt;192.168.0.1/24&lt;/font&gt;" style="text;html=1;align=center;verticalAlign=middle;resizable=0;points=[];autosize=1;" parent="1" vertex="1">
          <mxGeometry x="320" y="160" width="80" height="20" as="geometry" />
        </mxCell>
        <mxCell id="MYbSHBmcOl76W8GacL6I-6" value="&lt;font style=&quot;font-size: 9px&quot;&gt;123.123.1.1/24&lt;/font&gt;" style="text;html=1;align=center;verticalAlign=middle;resizable=0;points=[];autosize=1;" parent="1" vertex="1">
          <mxGeometry x="440" y="161" width="80" height="20" as="geometry" />
        </mxCell>
        <mxCell id="MYbSHBmcOl76W8GacL6I-8" value="" style="endArrow=none;dashed=1;html=1;entryX=1;entryY=0.5;entryDx=0;entryDy=0;entryPerimeter=0;" parent="1" target="0NU24TA6zj3jAs6wYLDZ-1" edge="1">
          <mxGeometry width="50" height="50" relative="1" as="geometry">
            <mxPoint x="480" y="180" as="sourcePoint" />
            <mxPoint x="530" y="130" as="targetPoint" />
          </mxGeometry>
        </mxCell>
        <mxCell id="MYbSHBmcOl76W8GacL6I-9" value="" style="endArrow=none;dashed=1;html=1;entryX=0;entryY=0.5;entryDx=0;entryDy=0;entryPerimeter=0;exitX=0.516;exitY=1.157;exitDx=0;exitDy=0;exitPerimeter=0;" parent="1" source="MYbSHBmcOl76W8GacL6I-5" target="0NU24TA6zj3jAs6wYLDZ-1" edge="1">
          <mxGeometry width="50" height="50" relative="1" as="geometry">
            <mxPoint x="362" y="174" as="sourcePoint" />
            <mxPoint x="330" y="198.8" as="targetPoint" />
          </mxGeometry>
        </mxCell>
        <mxCell id="9lygNGh4IYC_n8eEf7ti-1" value="&lt;font style=&quot;font-size: 8px&quot;&gt;08:00:27:e6:37:85&lt;/font&gt;" style="text;html=1;align=center;verticalAlign=middle;resizable=0;points=[];autosize=1;" parent="1" vertex="1">
          <mxGeometry x="470" y="310" width="90" height="20" as="geometry" />
        </mxCell>
        <mxCell id="9lygNGh4IYC_n8eEf7ti-2" value="&lt;font style=&quot;font-size: 8px&quot;&gt;08:00:27:e6:37:85&lt;/font&gt;" style="text;html=1;align=center;verticalAlign=middle;resizable=0;points=[];autosize=1;" parent="1" vertex="1">
          <mxGeometry x="415" y="221" width="90" height="20" as="geometry" />
        </mxCell>
        <mxCell id="9lygNGh4IYC_n8eEf7ti-3" value="&lt;font style=&quot;font-size: 8px&quot;&gt;08:00:27:e6:37:85&lt;/font&gt;" style="text;html=1;align=center;verticalAlign=middle;resizable=0;points=[];autosize=1;" parent="1" vertex="1">
          <mxGeometry x="335" y="221" width="90" height="20" as="geometry" />
        </mxCell>
        <mxCell id="9lygNGh4IYC_n8eEf7ti-4" value="&lt;font style=&quot;font-size: 8px&quot;&gt;08:00:27:8c:3a:0d&lt;/font&gt;" style="text;html=1;align=center;verticalAlign=middle;resizable=0;points=[];autosize=1;" parent="1" vertex="1">
          <mxGeometry x="115" y="240.2" width="90" height="20" as="geometry" />
        </mxCell>
      </root>
    </mxGraphModel>
  </diagram>
</mxfile>
